<?xml version="1.0" encoding="UTF-8"?>
<svg xmlns="http://www.w3.org/2000/svg" xmlns:xlink="http://www.w3.org/1999/xlink" width="205pt" height="160pt" viewBox="0 0 205 160" version="1.1">
<g id="surface1">
<path style=" stroke:none;fill-rule:nonzero;fill:rgb(99.215686%,80%,60.784314%);fill-opacity:1;" d="M 85.769531 120.773438 L 115.160156 120.773438 L 115.160156 146.464844 L 85.769531 146.464844 Z M 85.769531 120.773438 "/>
<path style=" stroke:none;fill-rule:nonzero;fill:rgb(98.823529%,73.72549%,52.156863%);fill-opacity:1;" d="M 85.769531 123.800781 C 85.769531 123.800781 98.132812 129.945312 115.160156 128.523438 L 115.160156 120.773438 L 85.769531 120.773438 Z M 85.769531 123.800781 "/>
<path style=" stroke:none;fill-rule:nonzero;fill:rgb(98.823529%,73.72549%,52.156863%);fill-opacity:1;" d="M 57.730469 80.9375 C 57.730469 73.882812 51.308594 68.167969 43.390625 68.167969 C 35.46875 68.167969 29.050781 73.882812 29.050781 80.9375 C 29.050781 87.988281 35.46875 93.707031 43.390625 93.707031 C 51.308594 93.707031 57.730469 87.988281 57.730469 80.9375 Z M 57.730469 80.9375 "/>
<path style=" stroke:none;fill-rule:nonzero;fill:rgb(98.823529%,73.72549%,52.156863%);fill-opacity:1;" d="M 171.882812 80.9375 C 171.882812 73.882812 165.460938 68.167969 157.539062 68.167969 C 149.621094 68.167969 143.199219 73.882812 143.199219 80.9375 C 143.199219 87.988281 149.621094 93.707031 157.539062 93.707031 C 165.460938 93.707031 171.882812 87.988281 171.882812 80.9375 Z M 171.882812 80.9375 "/>
<path style=" stroke:none;fill-rule:nonzero;fill:rgb(99.215686%,80%,60.784314%);fill-opacity:1;" d="M 157.480469 56.546875 C 157.480469 37.738281 139.847656 23.972656 100.464844 23.972656 C 61.082031 23.972656 43.449219 37.738281 43.449219 56.546875 C 43.449219 75.355469 39.335938 124.90625 100.464844 124.90625 C 161.597656 124.902344 157.480469 75.355469 157.480469 56.546875 Z M 157.480469 56.546875 "/>
<path style=" stroke:none;fill-rule:nonzero;fill:rgb(23.137255%,14.509804%,9.803922%);fill-opacity:1;" d="M 78.867188 77.878906 C 78.867188 74.964844 76.101562 72.605469 72.695312 72.605469 C 69.285156 72.605469 66.523438 74.964844 66.523438 77.878906 C 66.523438 80.792969 69.285156 83.15625 72.695312 83.15625 C 76.101562 83.15625 78.867188 80.792969 78.867188 77.878906 Z M 78.867188 77.878906 "/>
<path style=" stroke:none;fill-rule:nonzero;fill:rgb(100%,100%,100%);fill-opacity:1;" d="M 71.847656 75.550781 C 71.847656 76.347656 71.023438 76.992188 70.003906 76.992188 C 68.984375 76.992188 68.15625 76.347656 68.15625 75.550781 C 68.15625 74.753906 68.984375 74.109375 70.003906 74.109375 C 71.023438 74.109375 71.847656 74.753906 71.847656 75.550781 Z M 71.847656 75.550781 "/>
<path style=" stroke:none;fill-rule:nonzero;fill:rgb(85.098039%,43.137255%,15.294118%);fill-opacity:1;" d="M 62.820312 64.804688 C 65.738281 65.945312 70.425781 60.933594 81.152344 65.292969 C 83.109375 66.085938 84.273438 58.496094 72.777344 58.496094 C 62.820312 58.496094 61.054688 64.117188 62.820312 64.804688 Z M 62.820312 64.804688 "/>
<path style=" stroke:none;fill-rule:nonzero;fill:rgb(23.137255%,14.509804%,9.803922%);fill-opacity:1;" d="M 135.171875 77.878906 C 135.171875 74.964844 132.40625 72.605469 129 72.605469 C 125.589844 72.605469 122.828125 74.964844 122.828125 77.878906 C 122.828125 80.792969 125.589844 83.15625 129 83.15625 C 132.40625 83.15625 135.171875 80.792969 135.171875 77.878906 Z M 135.171875 77.878906 "/>
<path style=" stroke:none;fill-rule:nonzero;fill:rgb(100%,100%,100%);fill-opacity:1;" d="M 128.152344 75.550781 C 128.152344 76.347656 127.328125 76.992188 126.308594 76.992188 C 125.289062 76.992188 124.460938 76.347656 124.460938 75.550781 C 124.460938 74.753906 125.289062 74.109375 126.308594 74.109375 C 127.328125 74.109375 128.152344 74.753906 128.152344 75.550781 Z M 128.152344 75.550781 "/>
<path style=" stroke:none;fill-rule:nonzero;fill:rgb(85.098039%,43.137255%,15.294118%);fill-opacity:1;" d="M 138.109375 64.804688 C 135.191406 65.945312 130.503906 60.933594 119.777344 65.292969 C 117.824219 66.085938 116.65625 58.496094 128.152344 58.496094 C 138.109375 58.496094 139.875 64.117188 138.109375 64.804688 Z M 138.109375 64.804688 "/>
<path style=" stroke:none;fill-rule:nonzero;fill:rgb(98.823529%,73.72549%,52.156863%);fill-opacity:1;" d="M 100.464844 96.4375 C 94.367188 96.4375 90.691406 92.882812 90.691406 94.601562 C 90.691406 96.320312 92.457031 99.589844 100.464844 99.589844 C 108.472656 99.589844 110.238281 96.320312 110.238281 94.601562 C 110.238281 92.882812 106.5625 96.4375 100.464844 96.4375 Z M 100.464844 96.4375 "/>
<path style=" stroke:none;fill-rule:nonzero;fill:rgb(98.823529%,73.72549%,52.156863%);fill-opacity:1;" d="M 100.464844 112.253906 C 98.355469 112.253906 97.085938 111.027344 97.085938 111.621094 C 97.085938 112.214844 97.695312 113.347656 100.464844 113.347656 C 103.234375 113.347656 103.84375 112.214844 103.84375 111.621094 C 103.84375 111.027344 102.574219 112.253906 100.464844 112.253906 Z M 100.464844 112.253906 "/>
<path style=" stroke:none;fill-rule:nonzero;fill:rgb(96.862745%,58.039216%,36.862745%);fill-opacity:1;" d="M 100.464844 107.871094 C 90.796875 107.871094 84.976562 104.800781 84.976562 105.578125 C 84.976562 106.359375 87.769531 109.421875 100.464844 109.421875 C 113.160156 109.421875 115.953125 106.359375 115.953125 105.578125 C 115.957031 104.800781 110.132812 107.871094 100.464844 107.871094 Z M 100.464844 107.871094 "/>
<path style=" stroke:none;fill-rule:nonzero;fill:rgb(70.588235%,87.058824%,96.470588%);fill-opacity:1;" d="M 100.464844 131.097656 L 100.464844 160 L 29.050781 160 C 29.050781 148.300781 66.667969 131.097656 100.464844 131.097656 Z M 100.464844 131.097656 "/>
<path style=" stroke:none;fill-rule:nonzero;fill:rgb(70.588235%,87.058824%,96.470588%);fill-opacity:1;" d="M 100.464844 131.097656 L 100.464844 160 L 171.882812 160 C 171.882812 148.300781 134.265625 131.097656 100.464844 131.097656 Z M 100.464844 131.097656 "/>
<path style=" stroke:none;fill-rule:nonzero;fill:rgb(99.215686%,80%,60.784314%);fill-opacity:1;" d="M 85.769531 132.097656 C 85.769531 132.097656 90.066406 136.257812 100.464844 136.257812 C 110.859375 136.257812 115.160156 132.097656 115.160156 132.097656 C 115.160156 132.097656 99.914062 127.765625 85.769531 132.097656 Z M 85.769531 132.097656 "/>
<path style=" stroke:none;fill-rule:nonzero;fill:rgb(85.098039%,43.137255%,15.294118%);fill-opacity:1;" d="M 43.390625 77.878906 C 48.453125 77.878906 52.851562 66.066406 52.410156 58.496094 C 51.972656 50.925781 58.054688 45.421875 70.003906 41.292969 C 70.003906 41.292969 104.226562 48.863281 128.152344 48.863281 C 159.539062 48.863281 151.214844 77.652344 156.917969 77.878906 C 162.625 78.109375 168.796875 45.078125 162.183594 26.152344 C 162.183594 26.152344 172.324219 22.023438 175.410156 16.863281 C 178.496094 11.703125 167.445312 16.519531 157.539062 16.863281 C 157.539062 16.863281 175.140625 7.917969 175.9375 1.722656 C 176.734375 -4.46875 143.605469 8.261719 106.71875 5.164062 C 69.835938 2.066406 39.363281 18.132812 37.863281 42.667969 C 36.542969 64.296875 38.777344 77.878906 43.390625 77.878906 Z M 43.390625 77.878906 "/>
<path style=" stroke:none;fill-rule:nonzero;fill:rgb(50.196078%,80.784314%,95.294118%);fill-opacity:1;" d="M 85.769531 129.261719 L 100.464844 136.257812 L 84.976562 148.300781 L 73.464844 134.324219 C 73.464844 134.324219 80.996094 128.542969 85.769531 129.261719 Z M 85.769531 129.261719 "/>
<path style=" stroke:none;fill-rule:nonzero;fill:rgb(50.196078%,80.784314%,95.294118%);fill-opacity:1;" d="M 115.160156 129.261719 L 100.464844 136.257812 L 115.957031 148.300781 L 127.464844 134.324219 C 127.464844 134.324219 119.9375 128.542969 115.160156 129.261719 Z M 115.160156 129.261719 "/>
<path style=" stroke:none;fill-rule:nonzero;fill:rgb(39.607843%,78.431373%,94.901961%);fill-opacity:1;" d="M 100.464844 136.257812 L 100.464844 160 L 102.785156 138.0625 Z M 100.464844 136.257812 "/>
<path style=" stroke:none;fill-rule:nonzero;fill:rgb(39.607843%,78.431373%,94.901961%);fill-opacity:1;" d="M 99.363281 142.96875 C 99.363281 143.949219 98.34375 144.746094 97.085938 144.746094 C 95.828125 144.746094 94.808594 143.949219 94.808594 142.96875 C 94.808594 141.988281 95.828125 141.191406 97.085938 141.191406 C 98.34375 141.191406 99.363281 141.988281 99.363281 142.96875 Z M 99.363281 142.96875 "/>
<path style=" stroke:none;fill-rule:nonzero;fill:rgb(39.607843%,78.431373%,94.901961%);fill-opacity:1;" d="M 99.363281 157.074219 C 99.363281 158.058594 98.34375 158.851562 97.085938 158.851562 C 95.828125 158.851562 94.808594 158.058594 94.808594 157.074219 C 94.808594 156.09375 95.828125 155.296875 97.085938 155.296875 C 98.34375 155.296875 99.363281 156.09375 99.363281 157.074219 Z M 99.363281 157.074219 "/>
</g>
</svg>
