<?xml version="1.0" encoding="UTF-8"?>
<svg xmlns="http://www.w3.org/2000/svg" xmlns:xlink="http://www.w3.org/1999/xlink" width="205pt" height="205pt" viewBox="0 0 205 205" version="1.1">
<g id="surface1">
<path style=" stroke:none;fill-rule:nonzero;fill:rgb(99.215686%,80%,60.784314%);fill-opacity:1;" d="M 85.769531 154.742188 L 115.160156 154.742188 L 115.160156 187.660156 L 85.769531 187.660156 Z M 85.769531 154.742188 "/>
<path style=" stroke:none;fill-rule:nonzero;fill:rgb(98.823529%,73.72549%,52.156863%);fill-opacity:1;" d="M 85.769531 158.621094 C 85.769531 158.621094 98.132812 166.492188 115.160156 164.667969 L 115.160156 154.742188 L 85.769531 154.742188 Z M 85.769531 158.621094 "/>
<path style=" stroke:none;fill-rule:nonzero;fill:rgb(98.823529%,73.72549%,52.156863%);fill-opacity:1;" d="M 57.730469 103.699219 C 57.730469 94.664062 51.308594 87.339844 43.390625 87.339844 C 35.46875 87.339844 29.050781 94.664062 29.050781 103.699219 C 29.050781 112.738281 35.46875 120.0625 43.390625 120.0625 C 51.308594 120.0625 57.730469 112.738281 57.730469 103.699219 Z M 57.730469 103.699219 "/>
<path style=" stroke:none;fill-rule:nonzero;fill:rgb(98.823529%,73.72549%,52.156863%);fill-opacity:1;" d="M 171.882812 103.699219 C 171.882812 94.664062 165.460938 87.339844 157.539062 87.339844 C 149.621094 87.339844 143.199219 94.664062 143.199219 103.699219 C 143.199219 112.738281 149.621094 120.0625 157.539062 120.0625 C 165.460938 120.0625 171.882812 112.738281 171.882812 103.699219 Z M 171.882812 103.699219 "/>
<path style=" stroke:none;fill-rule:nonzero;fill:rgb(99.215686%,80%,60.784314%);fill-opacity:1;" d="M 157.480469 72.449219 C 157.480469 48.351562 139.847656 30.714844 100.464844 30.714844 C 61.082031 30.714844 43.449219 48.351562 43.449219 72.449219 C 43.449219 96.550781 39.335938 160.035156 100.464844 160.035156 C 161.597656 160.03125 157.480469 96.550781 157.480469 72.449219 Z M 157.480469 72.449219 "/>
<path style=" stroke:none;fill-rule:nonzero;fill:rgb(23.137255%,14.509804%,9.803922%);fill-opacity:1;" d="M 78.867188 99.785156 C 78.867188 96.050781 76.101562 93.023438 72.695312 93.023438 C 69.285156 93.023438 66.523438 96.050781 66.523438 99.785156 C 66.523438 103.515625 69.285156 106.542969 72.695312 106.542969 C 76.101562 106.542969 78.867188 103.515625 78.867188 99.785156 Z M 78.867188 99.785156 "/>
<path style=" stroke:none;fill-rule:nonzero;fill:rgb(100%,100%,100%);fill-opacity:1;" d="M 71.847656 96.800781 C 71.847656 97.816406 71.023438 98.644531 70.003906 98.644531 C 68.984375 98.644531 68.15625 97.816406 68.15625 96.800781 C 68.15625 95.78125 68.984375 94.953125 70.003906 94.953125 C 71.023438 94.953125 71.847656 95.78125 71.847656 96.800781 Z M 71.847656 96.800781 "/>
<path style=" stroke:none;fill-rule:nonzero;fill:rgb(85.098039%,43.137255%,15.294118%);fill-opacity:1;" d="M 62.820312 83.03125 C 65.738281 84.492188 70.425781 78.070312 81.152344 83.65625 C 83.109375 84.671875 84.273438 74.949219 72.777344 74.949219 C 62.820312 74.949219 61.054688 82.148438 62.820312 83.03125 Z M 62.820312 83.03125 "/>
<path style=" stroke:none;fill-rule:nonzero;fill:rgb(23.137255%,14.509804%,9.803922%);fill-opacity:1;" d="M 135.171875 99.785156 C 135.171875 96.050781 132.40625 93.023438 129 93.023438 C 125.589844 93.023438 122.828125 96.050781 122.828125 99.785156 C 122.828125 103.515625 125.589844 106.542969 129 106.542969 C 132.40625 106.542969 135.171875 103.515625 135.171875 99.785156 Z M 135.171875 99.785156 "/>
<path style=" stroke:none;fill-rule:nonzero;fill:rgb(100%,100%,100%);fill-opacity:1;" d="M 128.152344 96.800781 C 128.152344 97.816406 127.328125 98.644531 126.308594 98.644531 C 125.289062 98.644531 124.460938 97.816406 124.460938 96.800781 C 124.460938 95.78125 125.289062 94.953125 126.308594 94.953125 C 127.328125 94.953125 128.152344 95.78125 128.152344 96.800781 Z M 128.152344 96.800781 "/>
<path style=" stroke:none;fill-rule:nonzero;fill:rgb(85.098039%,43.137255%,15.294118%);fill-opacity:1;" d="M 138.109375 83.03125 C 135.191406 84.492188 130.503906 78.070312 119.777344 83.65625 C 117.824219 84.671875 116.65625 74.949219 128.152344 74.949219 C 138.109375 74.949219 139.875 82.148438 138.109375 83.03125 Z M 138.109375 83.03125 "/>
<path style=" stroke:none;fill-rule:nonzero;fill:rgb(98.823529%,73.72549%,52.156863%);fill-opacity:1;" d="M 100.464844 123.558594 C 94.367188 123.558594 90.691406 119.003906 90.691406 121.207031 C 90.691406 123.414062 92.457031 127.601562 100.464844 127.601562 C 108.472656 127.601562 110.238281 123.414062 110.238281 121.207031 C 110.238281 119.003906 106.5625 123.558594 100.464844 123.558594 Z M 100.464844 123.558594 "/>
<path style=" stroke:none;fill-rule:nonzero;fill:rgb(98.823529%,73.72549%,52.156863%);fill-opacity:1;" d="M 100.464844 143.828125 C 98.355469 143.828125 97.085938 142.25 97.085938 143.015625 C 97.085938 143.777344 97.695312 145.226562 100.464844 145.226562 C 103.234375 145.226562 103.84375 143.777344 103.84375 143.015625 C 103.84375 142.25 102.574219 143.828125 100.464844 143.828125 Z M 100.464844 143.828125 "/>
<path style=" stroke:none;fill-rule:nonzero;fill:rgb(96.862745%,58.039216%,36.862745%);fill-opacity:1;" d="M 100.464844 138.210938 C 90.796875 138.210938 84.976562 134.273438 84.976562 135.273438 C 84.976562 136.269531 87.769531 140.195312 100.464844 140.195312 C 113.160156 140.195312 115.953125 136.269531 115.953125 135.273438 C 115.957031 134.273438 110.132812 138.210938 100.464844 138.210938 Z M 100.464844 138.210938 "/>
<path style=" stroke:none;fill-rule:nonzero;fill:rgb(70.588235%,87.058824%,96.470588%);fill-opacity:1;" d="M 100.464844 167.96875 L 100.464844 205 L 29.050781 205 C 29.050781 190.011719 66.667969 167.96875 100.464844 167.96875 Z M 100.464844 167.96875 "/>
<path style=" stroke:none;fill-rule:nonzero;fill:rgb(70.588235%,87.058824%,96.470588%);fill-opacity:1;" d="M 100.464844 167.96875 L 100.464844 205 L 171.882812 205 C 171.882812 190.011719 134.265625 167.96875 100.464844 167.96875 Z M 100.464844 167.96875 "/>
<path style=" stroke:none;fill-rule:nonzero;fill:rgb(99.215686%,80%,60.784314%);fill-opacity:1;" d="M 85.769531 169.25 C 85.769531 169.25 90.066406 174.582031 100.464844 174.582031 C 110.859375 174.582031 115.160156 169.25 115.160156 169.25 C 115.160156 169.25 99.914062 163.699219 85.769531 169.25 Z M 85.769531 169.25 "/>
<path style=" stroke:none;fill-rule:nonzero;fill:rgb(85.098039%,43.137255%,15.294118%);fill-opacity:1;" d="M 43.390625 99.785156 C 48.453125 99.785156 52.851562 84.648438 52.410156 74.949219 C 51.972656 65.25 58.054688 58.195312 70.003906 52.90625 C 70.003906 52.90625 104.226562 62.605469 128.152344 62.605469 C 159.539062 62.605469 151.214844 99.492188 156.917969 99.785156 C 162.625 100.078125 168.796875 57.757812 162.183594 33.511719 C 162.183594 33.511719 172.324219 28.21875 175.410156 21.605469 C 178.496094 14.992188 167.445312 21.164062 157.539062 21.605469 C 157.539062 21.605469 175.140625 10.144531 175.9375 2.210938 C 176.734375 -5.726562 143.605469 10.585938 106.71875 6.617188 C 69.835938 2.648438 39.363281 23.234375 37.863281 54.667969 C 36.542969 82.382812 38.777344 99.785156 43.390625 99.785156 Z M 43.390625 99.785156 "/>
<path style=" stroke:none;fill-rule:nonzero;fill:rgb(50.196078%,80.784314%,95.294118%);fill-opacity:1;" d="M 85.769531 165.617188 L 100.464844 174.582031 L 84.976562 190.011719 L 73.464844 172.101562 C 73.464844 172.101562 80.996094 164.695312 85.769531 165.617188 Z M 85.769531 165.617188 "/>
<path style=" stroke:none;fill-rule:nonzero;fill:rgb(50.196078%,80.784314%,95.294118%);fill-opacity:1;" d="M 115.160156 165.617188 L 100.464844 174.582031 L 115.957031 190.011719 L 127.464844 172.101562 C 127.464844 172.101562 119.9375 164.695312 115.160156 165.617188 Z M 115.160156 165.617188 "/>
<path style=" stroke:none;fill-rule:nonzero;fill:rgb(39.607843%,78.431373%,94.901961%);fill-opacity:1;" d="M 100.464844 174.582031 L 100.464844 205 L 102.785156 176.890625 Z M 100.464844 174.582031 "/>
<path style=" stroke:none;fill-rule:nonzero;fill:rgb(39.607843%,78.431373%,94.901961%);fill-opacity:1;" d="M 99.363281 183.179688 C 99.363281 184.4375 98.34375 185.457031 97.085938 185.457031 C 95.828125 185.457031 94.808594 184.4375 94.808594 183.179688 C 94.808594 181.921875 95.828125 180.902344 97.085938 180.902344 C 98.34375 180.902344 99.363281 181.921875 99.363281 183.179688 Z M 99.363281 183.179688 "/>
<path style=" stroke:none;fill-rule:nonzero;fill:rgb(39.607843%,78.431373%,94.901961%);fill-opacity:1;" d="M 99.363281 201.253906 C 99.363281 202.511719 98.34375 203.53125 97.085938 203.53125 C 95.828125 203.53125 94.808594 202.511719 94.808594 201.253906 C 94.808594 199.996094 95.828125 198.976562 97.085938 198.976562 C 98.34375 198.976562 99.363281 199.996094 99.363281 201.253906 Z M 99.363281 201.253906 "/>
</g>
</svg>
