<svg xmlns="http://www.w3.org/2000/svg" xmlns:xlink="http://www.w3.org/1999/xlink" version="1.1" width="1000" height="1000" viewBox="0 0 1000 1000" xml:space="preserve">
<desc>Created with Fabric.js 3.5.0</desc>
<defs>
</defs>
<rect x="0" y="0" width="100%" height="100%" fill="#ffffff"/>
<g transform="matrix(3.2859 0 0 3.1102 500.0013 413.2674)" id="161711">
<g style="" vector-effect="non-scaling-stroke">
		<g transform="matrix(1 0 0 1 -2.0355 68.712)" id="Capa_1">
<rect style="stroke: none; stroke-width: 1; stroke-dasharray: none; stroke-linecap: butt; stroke-dashoffset: 0; stroke-linejoin: miter; stroke-miterlimit: 4; is-custom-font: none; font-file-url: none; fill: rgb(253,204,155); fill-rule: nonzero; opacity: 1;" x="-14.6975" y="-16.461" rx="0" ry="0" width="29.395" height="32.922"/>
</g>
		<g transform="matrix(1 0 0 1 -2.035 57.3521)" id="Capa_1">
<path style="stroke: none; stroke-width: 1; stroke-dasharray: none; stroke-linecap: butt; stroke-dashoffset: 0; stroke-linejoin: miter; stroke-miterlimit: 4; is-custom-font: none; font-file-url: none; fill: rgb(252,188,133); fill-rule: nonzero; opacity: 1;" transform=" translate(-100.481, -159.8681)" d="M 85.784 158.645 c 0 0 12.364 7.874 29.394 6.05 v -9.928 H 85.784 V 158.645 z" stroke-linecap="round"/>
</g>
		<g transform="matrix(1 0 0 1 -59.119 1.201)" id="Capa_1">
<ellipse style="stroke: none; stroke-width: 1; stroke-dasharray: none; stroke-linecap: butt; stroke-dashoffset: 0; stroke-linejoin: miter; stroke-miterlimit: 4; is-custom-font: none; font-file-url: none; fill: rgb(252,188,133); fill-rule: nonzero; opacity: 1;" cx="0" cy="0" rx="14.343" ry="16.364"/>
</g>
		<g transform="matrix(1 0 0 1 55.049 1.201)" id="Capa_1">
<ellipse style="stroke: none; stroke-width: 1; stroke-dasharray: none; stroke-linecap: butt; stroke-dashoffset: 0; stroke-linejoin: miter; stroke-miterlimit: 4; is-custom-font: none; font-file-url: none; fill: rgb(252,188,133); fill-rule: nonzero; opacity: 1;" cx="0" cy="0" rx="14.343" ry="16.364"/>
</g>
		<g transform="matrix(1 0 0 1 -2.0345 -7.126)" id="Capa_1">
<path style="stroke: none; stroke-width: 1; stroke-dasharray: none; stroke-linecap: butt; stroke-dashoffset: 0; stroke-linejoin: miter; stroke-miterlimit: 4; is-custom-font: none; font-file-url: none; fill: rgb(253,204,155); fill-rule: nonzero; opacity: 1;" transform=" translate(-100.4815, -95.39)" d="M 157.507 72.462 c 0 -24.103 -17.637 -41.741 -57.025 -41.741 c -39.39 0 -57.026 17.637 -57.026 41.741 c 0 24.104 -4.115 87.597 57.026 87.597 C 161.622 160.058 157.507 96.566 157.507 72.462 z" stroke-linecap="round"/>
</g>
		<g transform="matrix(1 0 0 1 -29.811 -2.717)" id="Capa_1">
<ellipse style="stroke: none; stroke-width: 1; stroke-dasharray: none; stroke-linecap: butt; stroke-dashoffset: 0; stroke-linejoin: miter; stroke-miterlimit: 4; is-custom-font: none; font-file-url: none; fill: rgb(59,37,25); fill-rule: nonzero; opacity: 1;" cx="0" cy="0" rx="6.173" ry="6.761"/>
</g>
		<g transform="matrix(1 0 0 1 -32.502 -5.702)" id="Capa_1">
<circle style="stroke: none; stroke-width: 1; stroke-dasharray: none; stroke-linecap: butt; stroke-dashoffset: 0; stroke-linejoin: miter; stroke-miterlimit: 4; is-custom-font: none; font-file-url: none; fill: rgb(255,255,255); fill-rule: nonzero; opacity: 1;" cx="0" cy="0" r="1.846"/>
</g>
		<g transform="matrix(1 0 0 1 -30.1922 -23.1637)" id="Capa_1">
<path style="stroke: none; stroke-width: 1; stroke-dasharray: none; stroke-linecap: butt; stroke-dashoffset: 0; stroke-linejoin: miter; stroke-miterlimit: 4; is-custom-font: none; font-file-url: none; fill: rgb(217,110,39); fill-rule: nonzero; opacity: 1;" transform=" translate(-72.3238, -79.3523)" d="M 62.83 83.044 c 2.919 1.46 7.606 -4.96 18.335 0.625 c 1.956 1.018 3.123 -8.708 -8.377 -8.708 C 62.83 74.961 61.066 82.162 62.83 83.044 z" stroke-linecap="round"/>
</g>
		<g transform="matrix(1 0 0 1 26.503 -2.717)" id="Capa_1">
<ellipse style="stroke: none; stroke-width: 1; stroke-dasharray: none; stroke-linecap: butt; stroke-dashoffset: 0; stroke-linejoin: miter; stroke-miterlimit: 4; is-custom-font: none; font-file-url: none; fill: rgb(59,37,25); fill-rule: nonzero; opacity: 1;" cx="0" cy="0" rx="6.173" ry="6.761"/>
</g>
		<g transform="matrix(1 0 0 1 23.811 -5.702)" id="Capa_1">
<circle style="stroke: none; stroke-width: 1; stroke-dasharray: none; stroke-linecap: butt; stroke-dashoffset: 0; stroke-linejoin: miter; stroke-miterlimit: 4; is-custom-font: none; font-file-url: none; fill: rgb(255,255,255); fill-rule: nonzero; opacity: 1;" cx="0" cy="0" r="1.846"/>
</g>
		<g transform="matrix(1 0 0 1 26.1219 -23.1637)" id="Capa_1">
<path style="stroke: none; stroke-width: 1; stroke-dasharray: none; stroke-linecap: butt; stroke-dashoffset: 0; stroke-linejoin: miter; stroke-miterlimit: 4; is-custom-font: none; font-file-url: none; fill: rgb(217,110,39); fill-rule: nonzero; opacity: 1;" transform=" translate(-128.638, -79.3523)" d="M 138.132 83.044 c -2.919 1.46 -7.607 -4.96 -18.335 0.625 c -1.956 1.018 -3.123 -8.708 8.377 -8.708 C 138.132 74.961 139.895 82.162 138.132 83.044 z" stroke-linecap="round"/>
</g>
		<g transform="matrix(1 0 0 1 -2.0355 21.607)" id="Capa_1">
<path style="stroke: none; stroke-width: 1; stroke-dasharray: none; stroke-linecap: butt; stroke-dashoffset: 0; stroke-linejoin: miter; stroke-miterlimit: 4; is-custom-font: none; font-file-url: none; fill: rgb(252,188,133); fill-rule: nonzero; opacity: 1;" transform=" translate(-100.4805, -124.1229)" d="M 100.481 123.579 c -6.1 0 -9.774 -4.556 -9.774 -2.352 c 0 2.205 1.764 6.394 9.774 6.394 c 8.01 0 9.773 -4.189 9.773 -6.394 C 110.255 119.023 106.58 123.579 100.481 123.579 z" stroke-linecap="round"/>
</g>
		<g transform="matrix(1 0 0 1 -2.0355 41.5222)" id="Capa_1">
<path style="stroke: none; stroke-width: 1; stroke-dasharray: none; stroke-linecap: butt; stroke-dashoffset: 0; stroke-linejoin: miter; stroke-miterlimit: 4; is-custom-font: none; font-file-url: none; fill: rgb(252,188,133); fill-rule: nonzero; opacity: 1;" transform=" translate(-100.4805, -144.0382)" d="M 100.481 143.85 c -2.11 0 -3.381 -1.576 -3.381 -0.813 s 0.609 2.211 3.381 2.211 c 2.77 0 3.38 -1.448 3.38 -2.211 S 102.591 143.85 100.481 143.85 z" stroke-linecap="round"/>
</g>
		<g transform="matrix(1 0 0 1 -2.0355 35.1589)" id="Capa_1">
<path style="stroke: none; stroke-width: 1; stroke-dasharray: none; stroke-linecap: butt; stroke-dashoffset: 0; stroke-linejoin: miter; stroke-miterlimit: 4; is-custom-font: none; font-file-url: none; fill: rgb(247,148,94); fill-rule: nonzero; opacity: 1;" transform=" translate(-100.4805, -137.675)" d="M 100.481 138.233 c -9.669 0 -15.493 -3.937 -15.493 -2.939 c 0 0.998 2.796 4.924 15.493 4.924 c 12.696 0 15.492 -3.926 15.492 -4.924 C 115.974 134.296 110.149 138.233 100.481 138.233 z" stroke-linecap="round"/>
</g>
		<g transform="matrix(1 0 0 1 -37.7485 83.998)" id="Capa_1">
<path style="stroke: none; stroke-width: 1; stroke-dasharray: none; stroke-linecap: butt; stroke-dashoffset: 0; stroke-linejoin: miter; stroke-miterlimit: 4; is-custom-font: none; font-file-url: none; fill: rgb(180,222,246); fill-rule: nonzero; opacity: 1;" transform=" translate(-64.7675, -186.514)" d="M 100.481 167.995 v 37.038 H 29.054 C 29.054 190.041 66.677 167.995 100.481 167.995 z" stroke-linecap="round"/>
</g>
		<g transform="matrix(1 0 0 1 33.6785 83.998)" id="Capa_1">
<path style="stroke: none; stroke-width: 1; stroke-dasharray: none; stroke-linecap: butt; stroke-dashoffset: 0; stroke-linejoin: miter; stroke-miterlimit: 4; is-custom-font: none; font-file-url: none; fill: rgb(180,222,246); fill-rule: nonzero; opacity: 1;" transform=" translate(-136.1945, -186.514)" d="M 100.481 167.995 v 37.038 h 71.427 C 171.908 190.041 134.285 167.995 100.481 167.995 z" stroke-linecap="round"/>
</g>
		<g transform="matrix(1 0 0 1 -2.036 68.1932)" id="Capa_1">
<path style="stroke: none; stroke-width: 1; stroke-dasharray: none; stroke-linecap: butt; stroke-dashoffset: 0; stroke-linejoin: miter; stroke-miterlimit: 4; is-custom-font: none; font-file-url: none; fill: rgb(253,204,155); fill-rule: nonzero; opacity: 1;" transform=" translate(-100.48, -170.7092)" d="M 85.783 169.277 c 0 0 4.299 5.332 14.697 5.332 c 10.398 0 14.697 -5.332 14.697 -5.332 S 99.93 163.725 85.783 169.277 z" stroke-linecap="round"/>
</g>
		<g transform="matrix(1 0 0 1 4.2201 -52.6143)" id="Capa_1">
<path style="stroke: none; stroke-width: 1; stroke-dasharray: none; stroke-linecap: butt; stroke-dashoffset: 0; stroke-linejoin: miter; stroke-miterlimit: 4; is-custom-font: none; font-file-url: none; fill: rgb(217,110,39); fill-rule: nonzero; opacity: 1;" transform=" translate(-106.7361, -49.9018)" d="M 43.396 99.799 c 5.064 0 9.465 -15.138 9.023 -24.838 c -0.44 -9.701 5.645 -16.755 17.594 -22.046 c 0 0 34.229 9.7 58.16 9.7 c 31.391 0 23.064 36.891 28.771 37.185 c 5.707 0.294 11.88 -42.035 5.266 -66.285 c 0 0 10.142 -5.292 13.228 -11.905 c 3.087 -6.614 -7.968 -0.441 -17.873 0 c 0 0 17.604 -11.464 18.4 -19.4 c 0.796 -7.936 -32.339 8.377 -69.23 4.409 C 69.845 2.649 39.37 23.238 37.87 54.678 C 36.547 82.395 38.782 99.799 43.396 99.799 z" stroke-linecap="round"/>
</g>
		<g transform="matrix(1 0 0 1 -15.537 75.2863)" id="Capa_1">
<path style="stroke: none; stroke-width: 1; stroke-dasharray: none; stroke-linecap: butt; stroke-dashoffset: 0; stroke-linejoin: miter; stroke-miterlimit: 4; is-custom-font: none; font-file-url: none; fill: rgb(128,206,243); fill-rule: nonzero; opacity: 1;" transform=" translate(-86.979, -177.8023)" d="M 85.783 165.643 l 14.697 8.965 l -15.492 15.433 l -11.51 -17.912 C 73.478 172.13 81.007 164.721 85.783 165.643 z" stroke-linecap="round"/>
</g>
		<g transform="matrix(1 0 0 1 11.4665 75.2863)" id="Capa_1">
<path style="stroke: none; stroke-width: 1; stroke-dasharray: none; stroke-linecap: butt; stroke-dashoffset: 0; stroke-linejoin: miter; stroke-miterlimit: 4; is-custom-font: none; font-file-url: none; fill: rgb(128,206,243); fill-rule: nonzero; opacity: 1;" transform=" translate(-113.9825, -177.8023)" d="M 115.178 165.643 l -14.697 8.965 l 15.493 15.433 l 11.51 -17.912 C 127.483 172.13 119.955 164.721 115.178 165.643 z" stroke-linecap="round"/>
</g>
		<g transform="matrix(1 0 0 1 -0.876 87.3045)" id="Capa_1">
<polygon style="stroke: none; stroke-width: 1; stroke-dasharray: none; stroke-linecap: butt; stroke-dashoffset: 0; stroke-linejoin: miter; stroke-miterlimit: 4; is-custom-font: none; font-file-url: none; fill: rgb(101,200,242); fill-rule: nonzero; opacity: 1;" points="-1.16,-15.2115 -1.16,15.2115 1.16,-12.9015 "/>
</g>
		<g transform="matrix(1 0 0 1 -5.416 80.691)" id="Capa_1">
<circle style="stroke: none; stroke-width: 1; stroke-dasharray: none; stroke-linecap: butt; stroke-dashoffset: 0; stroke-linejoin: miter; stroke-miterlimit: 4; is-custom-font: none; font-file-url: none; fill: rgb(101,200,242); fill-rule: nonzero; opacity: 1;" cx="0" cy="0" r="2.278"/>
</g>
		<g transform="matrix(1 0 0 1 -5.416 98.768)" id="Capa_1">
<circle style="stroke: none; stroke-width: 1; stroke-dasharray: none; stroke-linecap: butt; stroke-dashoffset: 0; stroke-linejoin: miter; stroke-miterlimit: 4; is-custom-font: none; font-file-url: none; fill: rgb(101,200,242); fill-rule: nonzero; opacity: 1;" cx="0" cy="0" r="2.278"/>
</g>
</g>
</g>
</svg>