<?xml version="1.0" encoding="UTF-8"?>
<svg xmlns="http://www.w3.org/2000/svg" xmlns:xlink="http://www.w3.org/1999/xlink" width="150px" height="150px" viewBox="0 0 103 103" version="1.1">
<g id="surface1">
<path style=" stroke:none;fill-rule:nonzero;fill:rgb(99.215686%,80%,60.784314%);fill-opacity:1;" d="M 43.09375 77.75 L 57.859375 77.75 L 57.859375 94.289062 L 43.09375 94.289062 Z M 43.09375 77.75 "/>
<path style=" stroke:none;fill-rule:nonzero;fill:rgb(98.823529%,73.72549%,52.156863%);fill-opacity:1;" d="M 43.09375 79.695312 C 43.09375 79.695312 49.304688 83.652344 57.859375 82.734375 L 57.859375 77.75 L 43.09375 77.75 Z M 43.09375 79.695312 "/>
<path style=" stroke:none;fill-rule:nonzero;fill:rgb(98.823529%,73.72549%,52.156863%);fill-opacity:1;" d="M 29.007812 52.101562 C 29.007812 47.5625 25.78125 43.882812 21.800781 43.882812 C 17.820312 43.882812 14.59375 47.5625 14.59375 52.101562 C 14.59375 56.644531 17.820312 60.324219 21.800781 60.324219 C 25.78125 60.324219 29.007812 56.644531 29.007812 52.101562 Z M 29.007812 52.101562 "/>
<path style=" stroke:none;fill-rule:nonzero;fill:rgb(98.823529%,73.72549%,52.156863%);fill-opacity:1;" d="M 86.359375 52.101562 C 86.359375 47.5625 83.132812 43.882812 79.15625 43.882812 C 75.175781 43.882812 71.949219 47.5625 71.949219 52.101562 C 71.949219 56.644531 75.175781 60.324219 79.15625 60.324219 C 83.132812 60.324219 86.359375 56.644531 86.359375 52.101562 Z M 86.359375 52.101562 "/>
<path style=" stroke:none;fill-rule:nonzero;fill:rgb(99.215686%,80%,60.784314%);fill-opacity:1;" d="M 79.125 36.402344 C 79.125 24.292969 70.265625 15.433594 50.476562 15.433594 C 30.691406 15.433594 21.832031 24.292969 21.832031 36.402344 C 21.832031 48.511719 19.761719 80.40625 50.476562 80.40625 C 81.191406 80.40625 79.125 48.511719 79.125 36.402344 Z M 79.125 36.402344 "/>
<path style=" stroke:none;fill-rule:nonzero;fill:rgb(23.137255%,14.509804%,9.803922%);fill-opacity:1;" d="M 39.625 50.136719 C 39.625 48.257812 38.238281 46.738281 36.523438 46.738281 C 34.8125 46.738281 33.421875 48.257812 33.421875 50.136719 C 33.421875 52.011719 34.8125 53.53125 36.523438 53.53125 C 38.238281 53.53125 39.625 52.011719 39.625 50.136719 Z M 39.625 50.136719 "/>
<path style=" stroke:none;fill-rule:nonzero;fill:rgb(100%,100%,100%);fill-opacity:1;" d="M 36.101562 48.636719 C 36.101562 49.148438 35.683594 49.5625 35.171875 49.5625 C 34.660156 49.5625 34.246094 49.148438 34.246094 48.636719 C 34.246094 48.125 34.660156 47.707031 35.171875 47.707031 C 35.683594 47.707031 36.101562 48.125 36.101562 48.636719 Z M 36.101562 48.636719 "/>
<path style=" stroke:none;fill-rule:nonzero;fill:rgb(85.098039%,43.137255%,15.294118%);fill-opacity:1;" d="M 31.5625 41.71875 C 33.03125 42.453125 35.382812 39.226562 40.773438 42.03125 C 41.757812 42.542969 42.34375 37.65625 36.566406 37.65625 C 31.5625 37.65625 30.675781 41.273438 31.5625 41.71875 Z M 31.5625 41.71875 "/>
<path style=" stroke:none;fill-rule:nonzero;fill:rgb(23.137255%,14.509804%,9.803922%);fill-opacity:1;" d="M 67.914062 50.136719 C 67.914062 48.257812 66.527344 46.738281 64.8125 46.738281 C 63.101562 46.738281 61.714844 48.257812 61.714844 50.136719 C 61.714844 52.011719 63.101562 53.53125 64.8125 53.53125 C 66.527344 53.53125 67.914062 52.011719 67.914062 50.136719 Z M 67.914062 50.136719 "/>
<path style=" stroke:none;fill-rule:nonzero;fill:rgb(100%,100%,100%);fill-opacity:1;" d="M 64.390625 48.636719 C 64.390625 49.148438 63.972656 49.5625 63.460938 49.5625 C 62.949219 49.5625 62.535156 49.148438 62.535156 48.636719 C 62.535156 48.125 62.949219 47.707031 63.460938 47.707031 C 63.972656 47.707031 64.390625 48.125 64.390625 48.636719 Z M 64.390625 48.636719 "/>
<path style=" stroke:none;fill-rule:nonzero;fill:rgb(85.098039%,43.137255%,15.294118%);fill-opacity:1;" d="M 69.390625 41.71875 C 67.925781 42.453125 65.570312 39.226562 60.179688 42.03125 C 59.199219 42.542969 58.613281 37.65625 64.390625 37.65625 C 69.390625 37.65625 70.277344 41.273438 69.390625 41.71875 Z M 69.390625 41.71875 "/>
<path style=" stroke:none;fill-rule:nonzero;fill:rgb(98.823529%,73.72549%,52.156863%);fill-opacity:1;" d="M 50.476562 62.082031 C 47.414062 62.082031 45.566406 59.792969 45.566406 60.898438 C 45.566406 62.007812 46.453125 64.113281 50.476562 64.113281 C 54.5 64.113281 55.386719 62.007812 55.386719 60.898438 C 55.386719 59.792969 53.542969 62.082031 50.476562 62.082031 Z M 50.476562 62.082031 "/>
<path style=" stroke:none;fill-rule:nonzero;fill:rgb(98.823529%,73.72549%,52.156863%);fill-opacity:1;" d="M 50.476562 72.265625 C 49.417969 72.265625 48.777344 71.472656 48.777344 71.855469 C 48.777344 72.238281 49.085938 72.96875 50.476562 72.96875 C 51.871094 72.96875 52.175781 72.238281 52.175781 71.855469 C 52.175781 71.472656 51.539062 72.265625 50.476562 72.265625 Z M 50.476562 72.265625 "/>
<path style=" stroke:none;fill-rule:nonzero;fill:rgb(96.862745%,58.039216%,36.862745%);fill-opacity:1;" d="M 50.476562 69.441406 C 45.621094 69.441406 42.695312 67.464844 42.695312 67.964844 C 42.695312 68.46875 44.097656 70.441406 50.476562 70.441406 C 56.855469 70.441406 58.261719 68.46875 58.261719 67.964844 C 58.261719 67.464844 55.335938 69.441406 50.476562 69.441406 Z M 50.476562 69.441406 "/>
<path style=" stroke:none;fill-rule:nonzero;fill:rgb(70.588235%,87.058824%,96.470588%);fill-opacity:1;" d="M 50.476562 84.394531 L 50.476562 103 L 14.59375 103 C 14.59375 95.46875 33.496094 84.394531 50.476562 84.394531 Z M 50.476562 84.394531 "/>
<path style=" stroke:none;fill-rule:nonzero;fill:rgb(70.588235%,87.058824%,96.470588%);fill-opacity:1;" d="M 50.476562 84.394531 L 50.476562 103 L 86.359375 103 C 86.359375 95.46875 67.460938 84.394531 50.476562 84.394531 Z M 50.476562 84.394531 "/>
<path style=" stroke:none;fill-rule:nonzero;fill:rgb(99.215686%,80%,60.784314%);fill-opacity:1;" d="M 43.09375 85.039062 C 43.09375 85.039062 45.253906 87.714844 50.476562 87.714844 C 55.699219 87.714844 57.859375 85.039062 57.859375 85.039062 C 57.859375 85.039062 50.199219 82.25 43.09375 85.039062 Z M 43.09375 85.039062 "/>
<path style=" stroke:none;fill-rule:nonzero;fill:rgb(85.098039%,43.137255%,15.294118%);fill-opacity:1;" d="M 21.800781 50.136719 C 24.34375 50.136719 26.554688 42.53125 26.332031 37.65625 C 26.113281 32.785156 29.167969 29.242188 35.171875 26.582031 C 35.171875 26.582031 52.367188 31.457031 64.390625 31.457031 C 80.160156 31.457031 75.976562 49.988281 78.84375 50.136719 C 81.710938 50.285156 84.808594 29.019531 81.488281 16.835938 C 81.488281 16.835938 86.582031 14.179688 88.132812 10.855469 C 89.683594 7.535156 84.128906 10.632812 79.15625 10.855469 C 79.15625 10.855469 87.996094 5.097656 88.398438 1.109375 C 88.796875 -2.875 72.152344 5.320312 53.621094 3.324219 C 35.085938 1.332031 19.777344 11.675781 19.023438 27.46875 C 18.359375 41.390625 19.484375 50.136719 21.800781 50.136719 Z M 21.800781 50.136719 "/>
<path style=" stroke:none;fill-rule:nonzero;fill:rgb(50.196078%,80.784314%,95.294118%);fill-opacity:1;" d="M 43.09375 83.210938 L 50.476562 87.714844 L 42.695312 95.46875 L 36.914062 86.472656 C 36.914062 86.472656 40.695312 82.75 43.09375 83.210938 Z M 43.09375 83.210938 "/>
<path style=" stroke:none;fill-rule:nonzero;fill:rgb(50.196078%,80.784314%,95.294118%);fill-opacity:1;" d="M 57.859375 83.210938 L 50.476562 87.714844 L 58.261719 95.46875 L 64.042969 86.472656 C 64.042969 86.472656 60.261719 82.75 57.859375 83.210938 Z M 57.859375 83.210938 "/>
<path style=" stroke:none;fill-rule:nonzero;fill:rgb(39.607843%,78.431373%,94.901961%);fill-opacity:1;" d="M 50.476562 87.714844 L 50.476562 103 L 51.644531 88.878906 Z M 50.476562 87.714844 "/>
<path style=" stroke:none;fill-rule:nonzero;fill:rgb(39.607843%,78.431373%,94.901961%);fill-opacity:1;" d="M 49.921875 92.035156 C 49.921875 92.667969 49.410156 93.179688 48.777344 93.179688 C 48.148438 93.179688 47.636719 92.667969 47.636719 92.035156 C 47.636719 91.402344 48.148438 90.890625 48.777344 90.890625 C 49.410156 90.890625 49.921875 91.402344 49.921875 92.035156 Z M 49.921875 92.035156 "/>
<path style=" stroke:none;fill-rule:nonzero;fill:rgb(39.607843%,78.431373%,94.901961%);fill-opacity:1;" d="M 49.921875 101.117188 C 49.921875 101.75 49.410156 102.261719 48.777344 102.261719 C 48.148438 102.261719 47.636719 101.75 47.636719 101.117188 C 47.636719 100.484375 48.148438 99.972656 48.777344 99.972656 C 49.410156 99.972656 49.921875 100.484375 49.921875 101.117188 Z M 49.921875 101.117188 "/>
</g>
</svg>
