<?xml version="1.0" encoding="UTF-8"?>
<svg xmlns="http://www.w3.org/2000/svg" xmlns:xlink="http://www.w3.org/1999/xlink" width="605px" height="605px" viewBox="0 0 605 605" version="1.1">
<g id="surface1">
<path style=" stroke:none;fill-rule:nonzero;fill:rgb(99.215686%,80%,60.784314%);fill-opacity:1;" d="M 253.125 456.679688 L 339.863281 456.679688 L 339.863281 553.824219 L 253.125 553.824219 Z M 253.125 456.679688 "/>
<path style=" stroke:none;fill-rule:nonzero;fill:rgb(98.823529%,73.72549%,52.156863%);fill-opacity:1;" d="M 253.128906 468.125 C 253.128906 468.125 289.609375 491.359375 339.863281 485.976562 L 339.863281 456.679688 L 253.128906 456.679688 Z M 253.128906 468.125 "/>
<path style=" stroke:none;fill-rule:nonzero;fill:rgb(98.823529%,73.72549%,52.156863%);fill-opacity:1;" d="M 170.375 306.042969 C 170.375 279.375 151.429688 257.757812 128.054688 257.757812 C 104.679688 257.757812 85.730469 279.375 85.730469 306.042969 C 85.730469 332.710938 104.679688 354.332031 128.054688 354.332031 C 151.429688 354.332031 170.375 332.710938 170.375 306.042969 Z M 170.375 306.042969 "/>
<path style=" stroke:none;fill-rule:nonzero;fill:rgb(98.823529%,73.72549%,52.156863%);fill-opacity:1;" d="M 507.257812 306.042969 C 507.257812 279.375 488.308594 257.757812 464.9375 257.757812 C 441.5625 257.757812 422.613281 279.375 422.613281 306.042969 C 422.613281 332.710938 441.5625 354.332031 464.9375 354.332031 C 488.308594 354.332031 507.257812 332.710938 507.257812 306.042969 Z M 507.257812 306.042969 "/>
<path style=" stroke:none;fill-rule:nonzero;fill:rgb(99.215686%,80%,60.784314%);fill-opacity:1;" d="M 464.765625 213.816406 C 464.765625 142.695312 412.722656 90.648438 296.5 90.648438 C 180.269531 90.648438 128.226562 142.691406 128.226562 213.816406 C 128.226562 284.941406 116.085938 472.296875 296.5 472.296875 C 476.90625 472.292969 464.765625 284.941406 464.765625 213.816406 Z M 464.765625 213.816406 "/>
<path style=" stroke:none;fill-rule:nonzero;fill:rgb(23.137255%,14.509804%,9.803922%);fill-opacity:1;" d="M 232.75 294.484375 C 232.75 283.464844 224.59375 274.53125 214.535156 274.53125 C 204.476562 274.53125 196.320312 283.464844 196.320312 294.484375 C 196.320312 305.5 204.476562 314.433594 214.535156 314.433594 C 224.59375 314.433594 232.75 305.5 232.75 294.484375 Z M 232.75 294.484375 "/>
<path style=" stroke:none;fill-rule:nonzero;fill:rgb(100%,100%,100%);fill-opacity:1;" d="M 212.042969 285.675781 C 212.042969 288.683594 209.601562 291.121094 206.59375 291.121094 C 203.585938 291.121094 201.148438 288.683594 201.148438 285.675781 C 201.148438 282.667969 203.585938 280.226562 206.59375 280.226562 C 209.601562 280.226562 212.042969 282.667969 212.042969 285.675781 Z M 212.042969 285.675781 "/>
<path style=" stroke:none;fill-rule:nonzero;fill:rgb(85.098039%,43.137255%,15.294118%);fill-opacity:1;" d="M 185.394531 245.042969 C 194.007812 249.351562 207.839844 230.40625 239.5 246.886719 C 245.269531 249.890625 248.714844 221.191406 214.78125 221.191406 C 185.394531 221.191406 180.191406 242.441406 185.394531 245.042969 Z M 185.394531 245.042969 "/>
<path style=" stroke:none;fill-rule:nonzero;fill:rgb(23.137255%,14.509804%,9.803922%);fill-opacity:1;" d="M 398.917969 294.484375 C 398.917969 283.464844 390.765625 274.53125 380.703125 274.53125 C 370.644531 274.53125 362.488281 283.464844 362.488281 294.484375 C 362.488281 305.5 370.644531 314.433594 380.703125 314.433594 C 390.765625 314.433594 398.917969 305.5 398.917969 294.484375 Z M 398.917969 294.484375 "/>
<path style=" stroke:none;fill-rule:nonzero;fill:rgb(100%,100%,100%);fill-opacity:1;" d="M 378.207031 285.675781 C 378.207031 288.683594 375.769531 291.121094 372.761719 291.121094 C 369.753906 291.121094 367.3125 288.683594 367.3125 285.675781 C 367.3125 282.667969 369.753906 280.226562 372.761719 280.226562 C 375.769531 280.226562 378.207031 282.667969 378.207031 285.675781 Z M 378.207031 285.675781 "/>
<path style=" stroke:none;fill-rule:nonzero;fill:rgb(85.098039%,43.137255%,15.294118%);fill-opacity:1;" d="M 407.59375 245.042969 C 398.980469 249.351562 385.148438 230.40625 353.492188 246.886719 C 347.71875 249.890625 344.277344 221.191406 378.210938 221.191406 C 407.59375 221.191406 412.796875 242.441406 407.59375 245.042969 Z M 407.59375 245.042969 "/>
<path style=" stroke:none;fill-rule:nonzero;fill:rgb(98.823529%,73.72549%,52.156863%);fill-opacity:1;" d="M 296.496094 364.652344 C 278.496094 364.652344 267.65625 351.207031 267.65625 357.710938 C 267.65625 364.21875 272.859375 376.578125 296.496094 376.578125 C 320.128906 376.578125 325.332031 364.21875 325.332031 357.710938 C 325.335938 351.207031 314.492188 364.652344 296.496094 364.652344 Z M 296.496094 364.652344 "/>
<path style=" stroke:none;fill-rule:nonzero;fill:rgb(98.823529%,73.72549%,52.156863%);fill-opacity:1;" d="M 296.496094 424.464844 C 290.269531 424.464844 286.519531 419.816406 286.519531 422.066406 C 286.519531 424.320312 288.316406 428.59375 296.496094 428.59375 C 304.667969 428.59375 306.46875 424.320312 306.46875 422.066406 C 306.46875 419.816406 302.722656 424.464844 296.496094 424.464844 Z M 296.496094 424.464844 "/>
<path style=" stroke:none;fill-rule:nonzero;fill:rgb(96.862745%,58.039216%,36.862745%);fill-opacity:1;" d="M 296.496094 407.890625 C 267.964844 407.890625 250.777344 396.273438 250.777344 399.21875 C 250.777344 402.164062 259.03125 413.75 296.496094 413.75 C 333.957031 413.75 342.207031 402.164062 342.207031 399.21875 C 342.210938 396.273438 325.023438 407.890625 296.496094 407.890625 Z M 296.496094 407.890625 "/>
<path style=" stroke:none;fill-rule:nonzero;fill:rgb(70.588235%,87.058824%,96.470588%);fill-opacity:1;" d="M 296.496094 495.710938 L 296.496094 605.003906 L 85.730469 605.003906 C 85.730469 560.765625 196.746094 495.710938 296.496094 495.710938 Z M 296.496094 495.710938 "/>
<path style=" stroke:none;fill-rule:nonzero;fill:rgb(70.588235%,87.058824%,96.470588%);fill-opacity:1;" d="M 296.496094 495.710938 L 296.496094 605.003906 L 507.257812 605.003906 C 507.257812 560.765625 396.242188 495.710938 296.496094 495.710938 Z M 296.496094 495.710938 "/>
<path style=" stroke:none;fill-rule:nonzero;fill:rgb(99.215686%,80%,60.784314%);fill-opacity:1;" d="M 253.125 499.496094 C 253.125 499.496094 265.808594 515.230469 296.492188 515.230469 C 327.175781 515.230469 339.859375 499.496094 339.859375 499.496094 C 339.859375 499.496094 294.871094 483.113281 253.125 499.496094 Z M 253.125 499.496094 "/>
<path style=" stroke:none;fill-rule:nonzero;fill:rgb(85.098039%,43.137255%,15.294118%);fill-opacity:1;" d="M 128.050781 294.484375 C 142.992188 294.484375 155.980469 249.8125 154.675781 221.191406 C 153.378906 192.566406 171.332031 171.75 206.589844 156.140625 C 206.589844 156.140625 307.59375 184.761719 378.207031 184.761719 C 470.835938 184.761719 446.265625 293.617188 463.105469 294.484375 C 479.945312 295.351562 498.160156 170.449219 478.644531 98.894531 C 478.644531 98.894531 508.570312 83.277344 517.675781 63.765625 C 526.785156 44.25 494.164062 62.464844 464.9375 63.765625 C 464.9375 63.765625 516.882812 29.9375 519.230469 6.519531 C 521.578125 -16.894531 423.804688 31.238281 314.949219 19.53125 C 206.097656 7.816406 116.171875 68.570312 111.746094 161.339844 C 107.839844 243.128906 114.4375 294.484375 128.050781 294.484375 Z M 128.050781 294.484375 "/>
<path style=" stroke:none;fill-rule:nonzero;fill:rgb(50.196078%,80.784314%,95.294118%);fill-opacity:1;" d="M 253.125 488.773438 L 296.492188 515.226562 L 250.777344 560.765625 L 216.816406 507.910156 C 216.816406 507.914062 239.03125 486.050781 253.125 488.773438 Z M 253.125 488.773438 "/>
<path style=" stroke:none;fill-rule:nonzero;fill:rgb(50.196078%,80.784314%,95.294118%);fill-opacity:1;" d="M 339.863281 488.773438 L 296.496094 515.226562 L 342.210938 560.765625 L 376.175781 507.910156 C 376.171875 507.914062 353.957031 486.050781 339.863281 488.773438 Z M 339.863281 488.773438 "/>
<path style=" stroke:none;fill-rule:nonzero;fill:rgb(39.607843%,78.431373%,94.901961%);fill-opacity:1;" d="M 296.492188 515.230469 L 296.492188 605 L 303.339844 522.046875 Z M 296.492188 515.230469 "/>
<path style=" stroke:none;fill-rule:nonzero;fill:rgb(39.607843%,78.431373%,94.901961%);fill-opacity:1;" d="M 293.242188 540.601562 C 293.242188 544.3125 290.230469 547.320312 286.519531 547.320312 C 282.804688 547.320312 279.796875 544.3125 279.796875 540.601562 C 279.796875 536.886719 282.804688 533.878906 286.519531 533.878906 C 290.230469 533.878906 293.242188 536.886719 293.242188 540.601562 Z M 293.242188 540.601562 "/>
<path style=" stroke:none;fill-rule:nonzero;fill:rgb(39.607843%,78.431373%,94.901961%);fill-opacity:1;" d="M 293.242188 593.941406 C 293.242188 597.652344 290.230469 600.664062 286.519531 600.664062 C 282.804688 600.664062 279.796875 597.652344 279.796875 593.941406 C 279.796875 590.226562 282.804688 587.21875 286.519531 587.21875 C 290.230469 587.21875 293.242188 590.226562 293.242188 593.941406 Z M 293.242188 593.941406 "/>
</g>
</svg>
